<svg width="254" height="115" viewBox="0 0 254 115" fill="none" xmlns="http://www.w3.org/2000/svg">
	<path d="M162.63 15.2008C169.95 8.29964 179.318 3.55606 189.551 1.56988C199.784 -0.416295 210.421 0.444142 220.117 4.04237C229.813 7.64061 238.133 13.815 244.025 21.7849C249.917 29.7547 253.116 39.1619 253.217 48.817C253.319 58.4721 250.318 67.9414 244.595 76.0274C238.872 84.1134 230.683 90.453 221.064 94.2444C211.446 98.0359 200.829 99.1089 190.557 97.3279C180.285 95.5468 170.819 90.9917 163.355 84.2384L180.435 68.1358C184.454 71.7725 189.552 74.2255 195.083 75.1846C200.615 76.1437 206.332 75.5658 211.512 73.5241C216.692 71.4824 221.101 68.0684 224.183 63.7141C227.265 59.3597 228.881 54.2604 228.826 49.061C228.772 43.8617 227.049 38.7958 223.876 34.5039C220.704 30.2121 216.223 26.8871 211.002 24.9495C205.78 23.0118 200.052 22.5484 194.542 23.618C189.031 24.6876 183.986 27.242 180.044 30.9584L162.63 15.2008Z" fill="#BD986B" />
	<path d="M162.63 15.2008C169.95 8.29964 179.318 3.55606 189.551 1.56988C199.784 -0.416295 210.421 0.444142 220.117 4.04237C229.813 7.64061 238.133 13.815 244.025 21.7849C249.917 29.7547 253.116 39.1619 253.217 48.817C253.319 58.4721 250.318 67.9414 244.595 76.0274C238.872 84.1134 230.683 90.453 221.064 94.2444C211.446 98.0359 200.829 99.1089 190.557 97.3279C180.285 95.5468 170.819 90.9917 163.355 84.2384L180.435 68.1358C184.454 71.7725 189.552 74.2255 195.083 75.1846C200.615 76.1437 206.332 75.5658 211.512 73.5241C216.692 71.4824 221.101 68.0684 224.183 63.7141C227.265 59.3597 228.881 54.2604 228.826 49.061C228.772 43.8617 227.049 38.7958 223.876 34.5039C220.704 30.2121 216.223 26.8871 211.002 24.9495C205.78 23.0118 200.052 22.5484 194.542 23.618C189.031 24.6876 183.986 27.242 180.044 30.9584L162.63 15.2008Z" fill="url(#paint0_linear)" />
	<path d="M58.662 82.27C57.942 82.27 57.228 82.204 56.52 82.072C55.824 81.952 55.254 81.784 54.81 81.568V79.912C55.962 80.452 57.204 80.722 58.536 80.722C60.408 80.722 61.344 80.092 61.344 78.832C61.344 78.4 61.242 78.052 61.038 77.788C60.834 77.524 60.54 77.296 60.156 77.104C59.772 76.9 59.148 76.624 58.284 76.276C57.096 75.796 56.238 75.268 55.71 74.692C55.182 74.116 54.918 73.39 54.918 72.514C54.918 71.854 55.098 71.272 55.458 70.768C55.818 70.252 56.322 69.856 56.97 69.58C57.618 69.292 58.362 69.148 59.202 69.148C59.886 69.148 60.504 69.202 61.056 69.31C61.608 69.418 62.148 69.592 62.676 69.832V71.416C61.632 70.948 60.576 70.714 59.508 70.714C58.644 70.714 57.984 70.87 57.528 71.182C57.072 71.494 56.844 71.938 56.844 72.514C56.844 72.91 56.94 73.246 57.132 73.522C57.336 73.786 57.63 74.026 58.014 74.242C58.41 74.446 58.992 74.704 59.76 75.016C60.612 75.364 61.284 75.694 61.776 76.006C62.268 76.318 62.64 76.702 62.892 77.158C63.156 77.602 63.288 78.16 63.288 78.832C63.288 79.924 62.898 80.77 62.118 81.37C61.338 81.97 60.186 82.27 58.662 82.27ZM76.584 69.418H78.348L83.37 82H81.498L80.238 78.868H74.676L73.452 82H71.562L76.584 69.418ZM79.734 77.338L77.466 71.452L75.198 77.338H79.734ZM92.0138 69.418H100.312V70.966H93.8498V74.98H98.6738V76.438H93.8498V82H92.0138V69.418ZM108.59 69.418H116.888V70.966H110.426V74.944H115.25V76.474H110.426V80.47H116.888V82H108.59V69.418ZM128.633 70.966H124.727V69.418H134.393V70.966H130.487V82H128.633V70.966ZM146.886 77.23L142.314 69.418H144.276L147.786 75.484L151.35 69.418H153.294L148.668 77.23V82H146.886V77.23Z" fill="#8E8741" />
	<path d="M58.662 82.27C57.942 82.27 57.228 82.204 56.52 82.072C55.824 81.952 55.254 81.784 54.81 81.568V79.912C55.962 80.452 57.204 80.722 58.536 80.722C60.408 80.722 61.344 80.092 61.344 78.832C61.344 78.4 61.242 78.052 61.038 77.788C60.834 77.524 60.54 77.296 60.156 77.104C59.772 76.9 59.148 76.624 58.284 76.276C57.096 75.796 56.238 75.268 55.71 74.692C55.182 74.116 54.918 73.39 54.918 72.514C54.918 71.854 55.098 71.272 55.458 70.768C55.818 70.252 56.322 69.856 56.97 69.58C57.618 69.292 58.362 69.148 59.202 69.148C59.886 69.148 60.504 69.202 61.056 69.31C61.608 69.418 62.148 69.592 62.676 69.832V71.416C61.632 70.948 60.576 70.714 59.508 70.714C58.644 70.714 57.984 70.87 57.528 71.182C57.072 71.494 56.844 71.938 56.844 72.514C56.844 72.91 56.94 73.246 57.132 73.522C57.336 73.786 57.63 74.026 58.014 74.242C58.41 74.446 58.992 74.704 59.76 75.016C60.612 75.364 61.284 75.694 61.776 76.006C62.268 76.318 62.64 76.702 62.892 77.158C63.156 77.602 63.288 78.16 63.288 78.832C63.288 79.924 62.898 80.77 62.118 81.37C61.338 81.97 60.186 82.27 58.662 82.27ZM76.584 69.418H78.348L83.37 82H81.498L80.238 78.868H74.676L73.452 82H71.562L76.584 69.418ZM79.734 77.338L77.466 71.452L75.198 77.338H79.734ZM92.0138 69.418H100.312V70.966H93.8498V74.98H98.6738V76.438H93.8498V82H92.0138V69.418ZM108.59 69.418H116.888V70.966H110.426V74.944H115.25V76.474H110.426V80.47H116.888V82H108.59V69.418ZM128.633 70.966H124.727V69.418H134.393V70.966H130.487V82H128.633V70.966ZM146.886 77.23L142.314 69.418H144.276L147.786 75.484L151.35 69.418H153.294L148.668 77.23V82H146.886V77.23Z" fill="#DFCAA8" />
	<path d="M31.8 25.04H36.12L44.92 47.44L53.72 25.04H58.04L46.88 53H42.96L31.8 25.04ZM68.345 53.6C66.185 53.6 64.2783 53.2 62.625 52.4C60.9983 51.5733 59.7183 50.4 58.785 48.88C57.8783 47.3333 57.425 45.52 57.425 43.44C57.425 41.3867 57.8783 39.5867 58.785 38.04C59.6917 36.4933 60.9717 35.3067 62.625 34.48C64.2783 33.6267 66.185 33.2 68.345 33.2C70.505 33.2 72.4117 33.6267 74.065 34.48C75.7183 35.3067 76.9983 36.4933 77.905 38.04C78.8383 39.5867 79.305 41.3867 79.305 43.44C79.305 45.52 78.8383 47.3333 77.905 48.88C76.9983 50.4 75.7183 51.5733 74.065 52.4C72.4117 53.2 70.505 53.6 68.345 53.6ZM68.345 50.4C70.425 50.4 72.0783 49.76 73.305 48.48C74.5317 47.2 75.145 45.52 75.145 43.44C75.145 41.28 74.5317 39.5733 73.305 38.32C72.0783 37.0667 70.425 36.44 68.345 36.44C66.265 36.44 64.6117 37.0667 63.385 38.32C62.1583 39.5733 61.545 41.28 61.545 43.44C61.545 45.52 62.1583 47.2 63.385 48.48C64.6117 49.76 66.265 50.4 68.345 50.4ZM85.1566 60.92C83.7166 60.92 82.5166 60.7733 81.5566 60.48V57.32C82.2499 57.5867 83.1032 57.72 84.1166 57.72C85.0499 57.72 85.7832 57.48 86.3166 57C86.8499 56.5467 87.3299 55.8 87.7566 54.76L88.6766 52.52L80.2766 33.8H84.4366L90.8366 48.56L96.7966 33.8H100.957L92.3166 55.16C91.5166 57.16 90.5566 58.6133 89.4366 59.52C88.3432 60.4533 86.9166 60.92 85.1566 60.92ZM108.816 53.6C106.496 53.6 104.629 53.0133 103.216 51.84C101.829 50.64 101.136 49.0267 101.136 47C101.136 44.8667 101.803 43.2267 103.136 42.08C104.496 40.9067 106.416 40.32 108.896 40.32C111.536 40.32 113.776 40.8533 115.616 41.92V40.92C115.616 39.4 115.149 38.28 114.216 37.56C113.309 36.8133 111.869 36.44 109.896 36.44C108.723 36.44 107.576 36.56 106.456 36.8C105.363 37.0133 104.376 37.32 103.496 37.72V34.44C104.296 34.0667 105.336 33.7733 106.616 33.56C107.896 33.32 109.136 33.2 110.336 33.2C113.509 33.2 115.856 33.9067 117.376 35.32C118.923 36.7067 119.696 38.64 119.696 41.12V53H115.896V50.84C115.069 51.7467 114.083 52.44 112.936 52.92C111.816 53.3733 110.443 53.6 108.816 53.6ZM109.816 50.52C111.096 50.52 112.256 50.2667 113.296 49.76C114.336 49.2533 115.109 48.5467 115.616 47.64V45.04C113.883 43.92 111.949 43.36 109.816 43.36C108.269 43.36 107.109 43.6667 106.336 44.28C105.589 44.8667 105.216 45.7733 105.216 47C105.216 49.3467 106.749 50.52 109.816 50.52ZM134.749 62.2C133.443 62.2 132.163 62.0933 130.909 61.88C129.683 61.6667 128.643 61.36 127.789 60.96V57.64C129.789 58.5467 132.109 59 134.749 59C137.229 59 139.029 58.4533 140.149 57.36C141.296 56.2933 141.869 54.6667 141.869 52.48V50.44C140.109 52.5467 137.523 53.6 134.109 53.6C132.163 53.6 130.416 53.1733 128.869 52.32C127.323 51.4667 126.109 50.2667 125.229 48.72C124.349 47.1733 123.909 45.4 123.909 43.4C123.909 41.3733 124.336 39.6 125.189 38.08C126.069 36.5333 127.269 35.3333 128.789 34.48C130.336 33.6267 132.069 33.2 133.989 33.2C135.776 33.2 137.283 33.4667 138.509 34C139.763 34.5067 140.923 35.36 141.989 36.56V33.8H145.909V52.04C145.909 55.32 144.989 57.8267 143.149 59.56C141.336 61.32 138.536 62.2 134.749 62.2ZM134.909 50.4C136.563 50.4 138.016 49.96 139.269 49.08C140.549 48.2 141.416 47.0267 141.869 45.56V41.24C141.363 39.7467 140.483 38.5733 139.229 37.72C138.003 36.8667 136.563 36.44 134.909 36.44C133.603 36.44 132.416 36.7333 131.349 37.32C130.309 37.88 129.483 38.6933 128.869 39.76C128.283 40.8267 127.989 42.04 127.989 43.4C127.989 44.7867 128.283 46.0133 128.869 47.08C129.483 48.12 130.309 48.9333 131.349 49.52C132.416 50.1067 133.603 50.4 134.909 50.4ZM161.676 53.6C158.129 53.6 155.342 52.72 153.316 50.96C151.316 49.1733 150.316 46.6667 150.316 43.44C150.316 40.2933 151.209 37.8 152.996 35.96C154.809 34.12 157.382 33.2 160.716 33.2C162.929 33.2 164.809 33.6267 166.356 34.48C167.902 35.3067 169.062 36.4667 169.836 37.96C170.636 39.4267 171.036 41.1067 171.036 43V45H154.156C154.289 46.8133 155.049 48.1733 156.436 49.08C157.849 49.96 159.756 50.4 162.156 50.4C163.382 50.4 164.622 50.2933 165.876 50.08C167.129 49.84 168.236 49.5333 169.196 49.16V52.4C168.342 52.7467 167.209 53.0267 165.796 53.24C164.409 53.48 163.036 53.6 161.676 53.6ZM167.236 42.16C167.182 40.3467 166.582 38.9467 165.436 37.96C164.316 36.9467 162.716 36.44 160.636 36.44C158.609 36.44 157.036 36.96 155.916 38C154.796 39.04 154.209 40.4267 154.156 42.16H167.236Z" fill="#8E8741" />
	<path d="M31.8 25.04H36.12L44.92 47.44L53.72 25.04H58.04L46.88 53H42.96L31.8 25.04ZM68.345 53.6C66.185 53.6 64.2783 53.2 62.625 52.4C60.9983 51.5733 59.7183 50.4 58.785 48.88C57.8783 47.3333 57.425 45.52 57.425 43.44C57.425 41.3867 57.8783 39.5867 58.785 38.04C59.6917 36.4933 60.9717 35.3067 62.625 34.48C64.2783 33.6267 66.185 33.2 68.345 33.2C70.505 33.2 72.4117 33.6267 74.065 34.48C75.7183 35.3067 76.9983 36.4933 77.905 38.04C78.8383 39.5867 79.305 41.3867 79.305 43.44C79.305 45.52 78.8383 47.3333 77.905 48.88C76.9983 50.4 75.7183 51.5733 74.065 52.4C72.4117 53.2 70.505 53.6 68.345 53.6ZM68.345 50.4C70.425 50.4 72.0783 49.76 73.305 48.48C74.5317 47.2 75.145 45.52 75.145 43.44C75.145 41.28 74.5317 39.5733 73.305 38.32C72.0783 37.0667 70.425 36.44 68.345 36.44C66.265 36.44 64.6117 37.0667 63.385 38.32C62.1583 39.5733 61.545 41.28 61.545 43.44C61.545 45.52 62.1583 47.2 63.385 48.48C64.6117 49.76 66.265 50.4 68.345 50.4ZM85.1566 60.92C83.7166 60.92 82.5166 60.7733 81.5566 60.48V57.32C82.2499 57.5867 83.1032 57.72 84.1166 57.72C85.0499 57.72 85.7832 57.48 86.3166 57C86.8499 56.5467 87.3299 55.8 87.7566 54.76L88.6766 52.52L80.2766 33.8H84.4366L90.8366 48.56L96.7966 33.8H100.957L92.3166 55.16C91.5166 57.16 90.5566 58.6133 89.4366 59.52C88.3432 60.4533 86.9166 60.92 85.1566 60.92ZM108.816 53.6C106.496 53.6 104.629 53.0133 103.216 51.84C101.829 50.64 101.136 49.0267 101.136 47C101.136 44.8667 101.803 43.2267 103.136 42.08C104.496 40.9067 106.416 40.32 108.896 40.32C111.536 40.32 113.776 40.8533 115.616 41.92V40.92C115.616 39.4 115.149 38.28 114.216 37.56C113.309 36.8133 111.869 36.44 109.896 36.44C108.723 36.44 107.576 36.56 106.456 36.8C105.363 37.0133 104.376 37.32 103.496 37.72V34.44C104.296 34.0667 105.336 33.7733 106.616 33.56C107.896 33.32 109.136 33.2 110.336 33.2C113.509 33.2 115.856 33.9067 117.376 35.32C118.923 36.7067 119.696 38.64 119.696 41.12V53H115.896V50.84C115.069 51.7467 114.083 52.44 112.936 52.92C111.816 53.3733 110.443 53.6 108.816 53.6ZM109.816 50.52C111.096 50.52 112.256 50.2667 113.296 49.76C114.336 49.2533 115.109 48.5467 115.616 47.64V45.04C113.883 43.92 111.949 43.36 109.816 43.36C108.269 43.36 107.109 43.6667 106.336 44.28C105.589 44.8667 105.216 45.7733 105.216 47C105.216 49.3467 106.749 50.52 109.816 50.52ZM134.749 62.2C133.443 62.2 132.163 62.0933 130.909 61.88C129.683 61.6667 128.643 61.36 127.789 60.96V57.64C129.789 58.5467 132.109 59 134.749 59C137.229 59 139.029 58.4533 140.149 57.36C141.296 56.2933 141.869 54.6667 141.869 52.48V50.44C140.109 52.5467 137.523 53.6 134.109 53.6C132.163 53.6 130.416 53.1733 128.869 52.32C127.323 51.4667 126.109 50.2667 125.229 48.72C124.349 47.1733 123.909 45.4 123.909 43.4C123.909 41.3733 124.336 39.6 125.189 38.08C126.069 36.5333 127.269 35.3333 128.789 34.48C130.336 33.6267 132.069 33.2 133.989 33.2C135.776 33.2 137.283 33.4667 138.509 34C139.763 34.5067 140.923 35.36 141.989 36.56V33.8H145.909V52.04C145.909 55.32 144.989 57.8267 143.149 59.56C141.336 61.32 138.536 62.2 134.749 62.2ZM134.909 50.4C136.563 50.4 138.016 49.96 139.269 49.08C140.549 48.2 141.416 47.0267 141.869 45.56V41.24C141.363 39.7467 140.483 38.5733 139.229 37.72C138.003 36.8667 136.563 36.44 134.909 36.44C133.603 36.44 132.416 36.7333 131.349 37.32C130.309 37.88 129.483 38.6933 128.869 39.76C128.283 40.8267 127.989 42.04 127.989 43.4C127.989 44.7867 128.283 46.0133 128.869 47.08C129.483 48.12 130.309 48.9333 131.349 49.52C132.416 50.1067 133.603 50.4 134.909 50.4ZM161.676 53.6C158.129 53.6 155.342 52.72 153.316 50.96C151.316 49.1733 150.316 46.6667 150.316 43.44C150.316 40.2933 151.209 37.8 152.996 35.96C154.809 34.12 157.382 33.2 160.716 33.2C162.929 33.2 164.809 33.6267 166.356 34.48C167.902 35.3067 169.062 36.4667 169.836 37.96C170.636 39.4267 171.036 41.1067 171.036 43V45H154.156C154.289 46.8133 155.049 48.1733 156.436 49.08C157.849 49.96 159.756 50.4 162.156 50.4C163.382 50.4 164.622 50.2933 165.876 50.08C167.129 49.84 168.236 49.5333 169.196 49.16V52.4C168.342 52.7467 167.209 53.0267 165.796 53.24C164.409 53.48 163.036 53.6 161.676 53.6ZM167.236 42.16C167.182 40.3467 166.582 38.9467 165.436 37.96C164.316 36.9467 162.716 36.44 160.636 36.44C158.609 36.44 157.036 36.96 155.916 38C154.796 39.04 154.209 40.4267 154.156 42.16H167.236Z" fill="#FBEEC1" />
	<defs>
		<linearGradient id="paint0_linear" x1="200.878" y1="98.1627" x2="200.049" y2="-0.000413615" gradientUnits="userSpaceOnUse">
			<stop stop-color="#FBEEC1" />
			<stop offset="1" stop-color="white" stop-opacity="0" />
		</linearGradient>
	</defs>
</svg>
