<svg width="116" height="48" viewBox="0 0 116 48" fill="none" xmlns="http://www.w3.org/2000/svg">
	<path d="M0 8C0 3.58172 3.58172 0 8 0H108C112.418 0 116 3.58172 116 8V40C116 44.4183 112.418 48 108 48H8C3.58172 48 0 44.4183 0 40V8Z" fill="#0F4A69" />
	<g filter="url(#filter0_d)">
		<path d="M19.488 30.16C18.5707 30.16 17.8613 29.9413 17.36 29.504C16.8693 29.0667 16.624 28.4533 16.624 27.664C16.624 26.8107 16.928 26.128 17.536 25.616C18.1547 25.104 19.1253 24.7947 20.448 24.688L22.112 24.56V24.304C22.112 23.792 21.9733 23.424 21.696 23.2C21.4187 22.976 20.992 22.864 20.416 22.864C19.8613 22.864 19.3173 22.9493 18.784 23.12C18.2613 23.28 17.808 23.472 17.424 23.696V21.712C17.7333 21.5627 18.1707 21.4133 18.736 21.264C19.3013 21.104 19.9573 21.024 20.704 21.024C21.4293 21.024 22.0747 21.1307 22.64 21.344C23.2053 21.5467 23.648 21.8933 23.968 22.384C24.2987 22.8747 24.464 23.5467 24.464 24.4V30H22.112V26.288L20.72 26.432C20.08 26.496 19.632 26.624 19.376 26.816C19.1307 27.008 19.008 27.264 19.008 27.584C19.008 27.904 19.1093 28.144 19.312 28.304C19.5253 28.464 19.7973 28.544 20.128 28.544C20.256 28.544 20.384 28.5333 20.512 28.512C20.64 28.48 20.7573 28.448 20.864 28.416L21.072 29.92C20.8693 29.9947 20.6293 30.0533 20.352 30.096C20.0747 30.1387 19.7867 30.16 19.488 30.16ZM29.0021 30L26.4581 21.232H28.8741L30.8101 28.064H30.9061C31.0768 28.064 31.2368 28.016 31.3861 27.92C31.5355 27.824 31.6635 27.696 31.7701 27.536C31.9835 27.2373 32.1435 26.8853 32.2501 26.48C32.3568 26.064 32.4101 25.6533 32.4101 25.248C32.4101 24.5333 32.2715 23.984 31.9941 23.6C31.7275 23.216 31.3541 23.024 30.8741 23.024C30.7781 23.024 30.6875 23.0293 30.6021 23.04C30.5275 23.0507 30.4581 23.072 30.3941 23.104L29.9461 21.264C30.1915 21.1893 30.4208 21.1467 30.6341 21.136C30.8581 21.1147 31.0395 21.104 31.1781 21.104C31.7435 21.104 32.2341 21.1787 32.6501 21.328C33.0661 21.4773 33.4235 21.7013 33.7221 22C34.4688 22.7467 34.8421 23.8133 34.8421 25.2C34.8421 26.064 34.7035 26.8213 34.4261 27.472C34.1595 28.112 33.8341 28.6187 33.4501 28.992C33.1301 29.3013 32.7248 29.5467 32.2341 29.728C31.7541 29.9093 31.0928 30 30.2501 30H29.0021ZM41.1668 30.208C39.9508 30.208 39.0281 29.9413 38.3988 29.408C37.7801 28.864 37.4708 28.0853 37.4708 27.072V26.448C37.4708 26.0107 37.5188 25.648 37.6148 25.36C37.7214 25.072 37.8601 24.8107 38.0308 24.576C38.2014 24.3413 38.3401 24.1333 38.4468 23.952C38.5641 23.76 38.6228 23.5627 38.6228 23.36C38.6228 23.168 38.5748 23.0347 38.4788 22.96C38.3934 22.8747 38.2761 22.832 38.1268 22.832C37.9348 22.832 37.7001 22.896 37.4228 23.024L37.0388 21.52C37.3374 21.36 37.6574 21.2533 37.9988 21.2C38.3508 21.136 38.6601 21.104 38.9268 21.104C39.6308 21.104 40.1268 21.2747 40.4148 21.616C40.7134 21.9467 40.8628 22.3947 40.8628 22.96C40.8628 23.2907 40.8148 23.584 40.7188 23.84C40.6228 24.0853 40.5001 24.3413 40.3508 24.608C40.2121 24.8533 40.0894 25.0827 39.9828 25.296C39.8868 25.5093 39.8388 25.8187 39.8388 26.224V26.832C39.8388 27.3547 39.9508 27.7387 40.1748 27.984C40.4094 28.2187 40.7401 28.336 41.1668 28.336C41.6254 28.336 41.9508 28.2133 42.1428 27.968C42.3454 27.712 42.4468 27.3707 42.4468 26.944V25.392C42.4468 25.072 42.3721 24.8213 42.2228 24.64C42.0841 24.448 41.8441 24.352 41.5028 24.352H41.4228V23.088H41.5188C41.8494 23.088 42.0948 22.9973 42.2548 22.816C42.4148 22.6347 42.5161 22.4053 42.5588 22.128C42.6121 21.84 42.6388 21.5413 42.6388 21.232H45.0228C45.0228 21.8827 44.9374 22.4213 44.7668 22.848C44.5961 23.2747 44.2974 23.5627 43.8708 23.712V23.776C44.2441 23.8827 44.4948 24.0853 44.6228 24.384C44.7614 24.672 44.8308 25.0027 44.8308 25.376V27.008C44.8308 28.064 44.5214 28.864 43.9028 29.408C43.2841 29.9413 42.3721 30.208 41.1668 30.208ZM38.5115 20.016V19.008L40.1275 18.336H41.8715V17.232H43.3915V18.336H44.3355V17.232H45.8395V20.016H38.5115ZM43.7783 16.384V13.408H45.8583V16.384H43.7783ZM52.9049 30.208C51.6035 30.208 50.6382 29.8933 50.0089 29.264C49.3795 28.624 49.0649 27.68 49.0649 26.432C49.0649 26.2187 49.0702 25.9627 49.0809 25.664C49.1022 25.3547 49.1289 25.0827 49.1609 24.848H53.0009V26.368H51.4169V26.592C51.4169 27.232 51.5342 27.7013 51.7689 28C52.0142 28.288 52.3875 28.432 52.8889 28.432C53.4222 28.432 53.8382 28.2453 54.1369 27.872C54.4355 27.488 54.5849 26.7947 54.5849 25.792C54.5849 24.8427 54.4195 24.1333 54.0889 23.664C53.7582 23.184 53.1502 22.944 52.2649 22.944C51.7849 22.944 51.2889 23.0187 50.7769 23.168C50.2649 23.3173 49.8435 23.4827 49.5129 23.664V21.664C49.8542 21.4827 50.3235 21.3333 50.9209 21.216C51.5289 21.088 52.1262 21.024 52.7129 21.024C53.7475 21.024 54.5795 21.216 55.2089 21.6C55.8489 21.9733 56.3129 22.5067 56.6009 23.2C56.8995 23.8933 57.0489 24.7147 57.0489 25.664C57.0489 27.1147 56.7235 28.2347 56.0729 29.024C55.4222 29.8133 54.3662 30.208 52.9049 30.208ZM62.1652 30.16C61.4506 30.16 60.9012 29.9947 60.5172 29.664C60.1332 29.3227 59.9412 28.8053 59.9412 28.112V21.232H62.3412V27.824C62.3412 28.2187 62.5279 28.416 62.9012 28.416C63.0612 28.416 63.2426 28.3787 63.4452 28.304L63.6692 29.84C63.2639 30.0533 62.7626 30.16 62.1652 30.16ZM69.0387 30.208C67.8441 30.208 66.9427 29.9413 66.3347 29.408C65.7267 28.8747 65.4227 28.096 65.4227 27.072V26.432C65.4227 25.9947 65.4814 25.6373 65.5987 25.36C65.7161 25.072 65.8601 24.8107 66.0307 24.576C66.2014 24.3413 66.3401 24.1333 66.4467 23.952C66.5641 23.76 66.6227 23.5627 66.6227 23.36C66.6227 23.168 66.5747 23.0347 66.4787 22.96C66.3934 22.8747 66.2761 22.832 66.1267 22.832C65.9347 22.832 65.7001 22.896 65.4227 23.024L65.0387 21.52C65.3374 21.36 65.6574 21.2533 65.9987 21.2C66.3507 21.136 66.6601 21.104 66.9267 21.104C67.6307 21.104 68.1267 21.2747 68.4147 21.616C68.7134 21.9467 68.8627 22.3947 68.8627 22.96C68.8627 23.2907 68.8147 23.584 68.7187 23.84C68.6227 24.0853 68.5001 24.3413 68.3507 24.608C68.2121 24.8533 68.0841 25.0827 67.9667 25.296C67.8601 25.5093 67.8067 25.8187 67.8067 26.224V26.864C67.8067 27.3867 67.9134 27.7653 68.1267 28C68.3507 28.224 68.6601 28.336 69.0547 28.336C69.8761 28.336 70.2867 27.872 70.2867 26.944V21.232H72.6707V27.008C72.6707 28.064 72.3614 28.864 71.7427 29.408C71.1241 29.9413 70.2227 30.208 69.0387 30.208ZM68.6321 20.032V19.232C68.7815 19.1893 68.9468 19.1307 69.1281 19.056C69.3095 18.9813 69.4695 18.88 69.6081 18.752C69.7468 18.624 69.8161 18.464 69.8161 18.272C69.8161 18.1227 69.7735 18.0053 69.6881 17.92C69.6028 17.8347 69.4961 17.792 69.3681 17.792C69.2828 17.792 69.1921 17.808 69.0961 17.84C69.0001 17.872 68.9148 17.904 68.8401 17.936L68.5361 16.864C68.7495 16.6827 69.0161 16.5653 69.3361 16.512C69.6455 16.448 69.9068 16.416 70.1201 16.416C70.6001 16.416 70.9788 16.528 71.2561 16.752C71.5228 16.976 71.6561 17.3067 71.6561 17.744C71.6561 18.0213 71.5761 18.2667 71.4161 18.48H73.8641V20.032H68.6321ZM78.8275 30V24.208C78.8275 23.76 78.7208 23.4347 78.5075 23.232C78.3048 23.0293 77.9688 22.928 77.4995 22.928C77.1475 22.928 76.8222 22.976 76.5235 23.072C76.2355 23.168 75.9635 23.2853 75.7075 23.424V21.504C75.9422 21.3973 76.2728 21.2907 76.6995 21.184C77.1262 21.0773 77.6275 21.024 78.2035 21.024C78.7902 21.024 79.3075 21.1093 79.7555 21.28C80.2142 21.4507 80.5715 21.7387 80.8275 22.144C81.0942 22.5387 81.2275 23.0827 81.2275 23.776V30H78.8275ZM86.7246 30.16C86.01 30.16 85.4606 29.9947 85.0766 29.664C84.6926 29.3227 84.5006 28.8053 84.5006 28.112V22.192C84.5006 21.9147 84.5166 21.6853 84.5486 21.504C84.5913 21.3227 84.666 21.152 84.7726 20.992C84.8793 20.8213 85.034 20.6187 85.2366 20.384C85.45 20.1387 85.626 19.9253 85.7646 19.744C85.9033 19.5627 85.9726 19.3547 85.9726 19.12C85.9726 18.8747 85.882 18.6827 85.7006 18.544C85.53 18.3947 85.258 18.32 84.8846 18.32C84.5966 18.32 84.3406 18.3573 84.1166 18.432C83.8926 18.5067 83.69 18.6027 83.5086 18.72V16.944C83.658 16.8587 83.9246 16.7627 84.3086 16.656C84.7033 16.5387 85.178 16.48 85.7326 16.48C86.5753 16.48 87.242 16.656 87.7326 17.008C88.2233 17.36 88.4686 17.888 88.4686 18.592C88.4686 19.0187 88.3833 19.392 88.2126 19.712C88.0526 20.032 87.882 20.3147 87.7006 20.56C87.53 20.7947 87.3806 20.992 87.2526 21.152C87.1353 21.3013 87.0446 21.456 86.9806 21.616C86.9273 21.776 86.9006 21.9893 86.9006 22.256V27.824C86.9006 28.2187 87.082 28.416 87.4446 28.416C87.6153 28.416 87.802 28.3787 88.0046 28.304L88.2286 29.84C87.8233 30.0533 87.322 30.16 86.7246 30.16ZM93.6793 30.208C92.4633 30.208 91.5406 29.9413 90.9113 29.408C90.2926 28.864 89.9833 28.0853 89.9833 27.072V26.448C89.9833 26.0107 90.0313 25.648 90.1273 25.36C90.2339 25.072 90.3726 24.8107 90.5433 24.576C90.7139 24.3413 90.8526 24.1333 90.9593 23.952C91.0766 23.76 91.1353 23.5627 91.1353 23.36C91.1353 23.168 91.0873 23.0347 90.9913 22.96C90.9059 22.8747 90.7886 22.832 90.6393 22.832C90.4473 22.832 90.2126 22.896 89.9353 23.024L89.5513 21.52C89.8499 21.36 90.1699 21.2533 90.5113 21.2C90.8633 21.136 91.1726 21.104 91.4393 21.104C92.1433 21.104 92.6393 21.2747 92.9273 21.616C93.2259 21.9467 93.3753 22.3947 93.3753 22.96C93.3753 23.2907 93.3273 23.584 93.2313 23.84C93.1353 24.0853 93.0126 24.3413 92.8633 24.608C92.7246 24.8533 92.6019 25.0827 92.4953 25.296C92.3993 25.5093 92.3513 25.8187 92.3513 26.224V26.832C92.3513 27.3547 92.4633 27.7387 92.6873 27.984C92.9219 28.2187 93.2526 28.336 93.6793 28.336C94.1379 28.336 94.4633 28.2133 94.6553 27.968C94.8579 27.712 94.9593 27.3707 94.9593 26.944V25.392C94.9593 25.072 94.8846 24.8213 94.7353 24.64C94.5966 24.448 94.3566 24.352 94.0153 24.352H93.9353V23.088H94.0313C94.3619 23.088 94.6073 22.9973 94.7673 22.816C94.9273 22.6347 95.0286 22.4053 95.0713 22.128C95.1246 21.84 95.1513 21.5413 95.1513 21.232H97.5353C97.5353 21.8827 97.4499 22.4213 97.2793 22.848C97.1086 23.2747 96.8099 23.5627 96.3833 23.712V23.776C96.7566 23.8827 97.0073 24.0853 97.1353 24.384C97.2739 24.672 97.3433 25.0027 97.3433 25.376V27.008C97.3433 28.064 97.0339 28.864 96.4153 29.408C95.7966 29.9413 94.8846 30.208 93.6793 30.208ZM93.504 20.032V19.232C93.6533 19.1893 93.8187 19.1307 94 19.056C94.1813 18.9813 94.3413 18.88 94.48 18.752C94.6187 18.624 94.688 18.464 94.688 18.272C94.688 18.1227 94.6453 18.0053 94.56 17.92C94.4747 17.8347 94.368 17.792 94.24 17.792C94.1547 17.792 94.064 17.808 93.968 17.84C93.872 17.872 93.7867 17.904 93.712 17.936L93.408 16.864C93.6213 16.6827 93.888 16.5653 94.208 16.512C94.5173 16.448 94.7787 16.416 94.992 16.416C95.472 16.416 95.8507 16.528 96.128 16.752C96.3947 16.976 96.528 17.3067 96.528 17.744C96.528 18.0213 96.448 18.2667 96.288 18.48H98.736V20.032H93.504Z" fill="white" />
	</g>
	<defs>
		<filter id="filter0_d" x="-4" y="0" width="124" height="56" filterUnits="userSpaceOnUse" color-interpolation-filters="sRGB">
			<feFlood flood-opacity="0" result="BackgroundImageFix" />
			<feColorMatrix in="SourceAlpha" type="matrix" values="0 0 0 0 0 0 0 0 0 0 0 0 0 0 0 0 0 0 127 0" />
			<feOffset dy="4" />
			<feGaussianBlur stdDeviation="2" />
			<feColorMatrix type="matrix" values="0 0 0 0 0 0 0 0 0 0 0 0 0 0 0 0 0 0 0.25 0" />
			<feBlend mode="normal" in2="BackgroundImageFix" result="effect1_dropShadow" />
			<feBlend mode="normal" in="SourceGraphic" in2="effect1_dropShadow" result="shape" />
		</filter>
	</defs>
</svg>
